<svg width="32" height="32" viewBox="0 0 32 32" fill="none" xmlns="http://www.w3.org/2000/svg">
<path d="M2.83711 12.6178C0.464915 25.3998 0.464915 25.8056 2.4058 27.4287C4.63423 29.3223 12.254 29.2547 15.0575 27.2934C17.4297 25.6703 18.8674 22.0183 19.0831 17.3519C19.2987 12.8884 17.2141 11.1976 12.1821 11.671C9.30674 11.8739 8.80354 11.8063 9.09108 10.8595C9.23485 10.2508 9.59427 8.56006 9.88181 7.07222C10.0975 5.58437 10.4569 3.826 10.6725 3.1497C11.032 2.20289 10.6007 2 7.94093 2H4.778L2.83711 12.6178ZM12.6853 19.3808C12.6134 22.8299 11.3195 24.453 8.87543 24.1825C7.15019 23.9796 7.00642 23.7767 7.29396 21.2744C7.65339 17.3519 8.516 16.0669 10.8163 16.3375C12.6134 16.5403 12.7572 16.8109 12.6853 19.3808Z" fill="#F33F61"/>
<path d="M24.9771 3.623C23.18 6.12529 24.1145 8.08655 27.0618 8.08655C29.9372 8.08655 31.303 6.80159 30.9436 4.23167C30.7998 2.67619 30.3685 2.27041 28.4276 2.13515C26.6305 1.93226 25.9116 2.27041 24.9771 3.623Z" fill="#F33F61"/>
<path d="M23.3957 12.1444C22.4612 12.4825 21.7424 13.0912 21.7424 13.4293C21.7424 13.7675 21.5267 14.5114 21.3111 15.1201C21.0235 15.864 21.2392 16.2021 22.0299 16.2021C24.1864 16.2021 24.1864 18.0281 22.0299 27.5639C21.7424 29.0518 21.8861 29.1194 24.7615 28.9165L27.7807 28.7136L29.0746 21.9507C30.5123 14.4438 30.2966 13.0236 27.7088 12.0767C25.6241 11.3328 25.4804 11.3328 23.3957 12.1444Z" fill="#F33F61"/>
</svg>
