<svg width="68" height="19" viewBox="0 0 68 19" fill="none" xmlns="http://www.w3.org/2000/svg">
<g clip-path="url(#clip0_357_92)">
<path d="M55.3861 0C58.8465 0 61.8313 0.803665 64.3002 2.41101C66.7689 4.01835 68 5.95997 68 8.24298C68 10.4975 66.7656 12.4427 64.3002 14.05C61.8347 15.6573 58.8499 16.461 55.3861 16.461H54.3911V12.6489H55.3861C57.2546 12.6489 58.8465 12.2329 60.1618 11.3545C61.5142 10.4975 62.1922 9.46271 62.1922 8.24298C62.1922 6.99836 61.5142 5.96346 60.1618 5.1065C58.8499 4.2246 57.258 3.81209 55.3861 3.81209H52.4418V19L46.6307 15.1915V3.81209H44.6813V0H55.3861ZM34.9746 10.1348H31.0759V6.32265H40.7858L34.9746 10.1348ZM42.7318 0V3.80854H29.123V12.6453H36.9207V11.4007H42.7285V16.4575H23.3153V3.80854H21.3659V0H42.7318ZM13.6054 3.80854H11.6559V0H19.4165V10.1348C19.4165 11.8702 18.5025 13.3743 16.5902 14.594C14.6813 15.8387 12.4114 16.461 9.70655 16.461C7.04215 16.461 4.73186 15.8387 2.8634 14.594C0.954466 13.3743 0 11.8737 0 10.1348H5.84823C5.84823 10.8353 6.20572 11.4292 6.96121 11.9235C7.71668 12.4178 8.63066 12.6489 9.70655 12.6489C10.7791 12.6489 11.6965 12.4178 12.4519 11.9235C13.2074 11.4327 13.6054 10.8353 13.6054 10.1348V3.80854Z" fill="#173D7A"/>
</g>
<defs>
<clipPath id="clip0_357_92">
<rect width="68" height="19" fill="white"/>
</clipPath>
</defs>
</svg>
